<svg xmlns="http://www.w3.org/2000/svg" xmlns:xlink="http://www.w3.org/1999/xlink" width="100" zoomAndPan="magnify" viewBox="0 0 75 74.999997" height="100" preserveAspectRatio="xMidYMid meet" version="1.0"><defs><g/><clipPath id="dd13b68610"><path d="M 3.113281 6.804688 L 72.105469 6.804688 L 72.105469 68.304688 L 3.113281 68.304688 Z M 3.113281 6.804688 " clip-rule="nonzero"/></clipPath></defs><g clip-path="url(#dd13b68610)"><path fill="#d91a1a" d="M 71.175781 58.003906 L 43.5625 10.242188 C 42.9375 9.15625 42.035156 8.265625 40.953125 7.664062 C 39.9375 7.101562 38.78125 6.804688 37.609375 6.804688 C 36.4375 6.804688 35.28125 7.101562 34.261719 7.664062 C 33.183594 8.261719 32.28125 9.15625 31.652344 10.242188 L 4.039062 58.003906 C 3.410156 59.089844 3.089844 60.316406 3.113281 61.550781 C 3.132812 62.710938 3.453125 63.859375 4.039062 64.871094 C 4.625 65.886719 5.460938 66.738281 6.457031 67.335938 C 7.515625 67.96875 8.738281 68.304688 9.996094 68.304688 L 65.21875 68.304688 C 66.476562 68.304688 67.699219 67.96875 68.757812 67.335938 C 69.753906 66.738281 70.589844 65.886719 71.175781 64.871094 C 71.761719 63.859375 72.082031 62.710938 72.105469 61.550781 C 72.125 60.316406 71.804688 59.089844 71.175781 58.003906 " fill-opacity="1" fill-rule="nonzero"/></g><path fill="#ffffff" d="M 37.609375 10.460938 C 37.054688 10.460938 36.511719 10.601562 36.039062 10.863281 C 35.539062 11.140625 35.117188 11.558594 34.824219 12.070312 L 7.210938 59.832031 C 6.914062 60.34375 6.761719 60.914062 6.773438 61.484375 C 6.78125 62.027344 6.933594 62.566406 7.210938 63.042969 C 7.488281 63.523438 7.878906 63.921875 8.34375 64.203125 C 8.832031 64.496094 9.402344 64.652344 9.996094 64.652344 L 65.21875 64.652344 C 65.8125 64.652344 66.382812 64.496094 66.875 64.203125 C 67.339844 63.921875 67.730469 63.523438 68.007812 63.042969 C 68.28125 62.566406 68.433594 62.027344 68.445312 61.484375 C 68.453125 60.914062 68.300781 60.34375 68.007812 59.832031 L 40.394531 12.070312 C 40.097656 11.558594 39.675781 11.140625 39.179688 10.863281 C 38.703125 10.601562 38.160156 10.460938 37.609375 10.460938 Z M 65.21875 66.273438 L 9.996094 66.273438 C 9.109375 66.273438 8.246094 66.039062 7.503906 65.59375 C 6.804688 65.171875 6.214844 64.574219 5.800781 63.855469 C 5.386719 63.140625 5.160156 62.332031 5.144531 61.515625 C 5.132812 60.648438 5.355469 59.785156 5.800781 59.019531 L 33.414062 11.257812 C 33.855469 10.488281 34.492188 9.863281 35.25 9.441406 C 35.964844 9.046875 36.78125 8.835938 37.609375 8.835938 C 38.4375 8.835938 39.253906 9.046875 39.964844 9.441406 C 40.722656 9.863281 41.359375 10.488281 41.804688 11.257812 L 69.414062 59.019531 C 69.859375 59.785156 70.085938 60.648438 70.070312 61.515625 C 70.054688 62.332031 69.828125 63.140625 69.414062 63.855469 C 69 64.574219 68.414062 65.171875 67.710938 65.59375 C 66.96875 66.039062 66.109375 66.273438 65.21875 66.273438 " fill-opacity="1" fill-rule="nonzero"/><path fill="#ffffff" d="M 37.609375 53.488281 C 35.195312 53.488281 33.230469 55.449219 33.230469 57.859375 C 33.230469 60.269531 35.195312 62.230469 37.609375 62.230469 C 40.023438 62.230469 41.988281 60.269531 41.988281 57.859375 C 41.988281 55.449219 40.023438 53.488281 37.609375 53.488281 " fill-opacity="1" fill-rule="nonzero"/><path fill="#ffffff" d="M 34.40625 45.738281 C 34.5 47.4375 35.90625 48.765625 37.609375 48.765625 C 39.308594 48.765625 40.714844 47.4375 40.8125 45.738281 L 41.964844 25.253906 C 42.03125 24.046875 41.609375 22.898438 40.777344 22.019531 C 39.945312 21.140625 38.820312 20.65625 37.609375 20.65625 C 36.398438 20.65625 35.269531 21.140625 34.4375 22.019531 C 33.605469 22.898438 33.183594 24.046875 33.253906 25.253906 L 34.40625 45.738281 " fill-opacity="1" fill-rule="nonzero"/><g fill="#d91a1a" fill-opacity="1"><g transform="translate(12.013668, 60.147281)"><g><path d="M 2.4375 -1.46875 L 1.875 0 L 1.6875 0 L 1.234375 -1.203125 L 0.765625 0 L 0.578125 0 L 0.015625 -1.46875 L 0.21875 -1.46875 L 0.671875 -0.21875 L 1.140625 -1.46875 L 1.3125 -1.46875 L 1.78125 -0.21875 L 2.25 -1.46875 Z M 2.4375 -1.46875 "/></g></g></g><g fill="#d91a1a" fill-opacity="1"><g transform="translate(14.473199, 60.147281)"><g><path d="M 0.796875 -1.484375 C 0.984375 -1.484375 1.128906 -1.429688 1.234375 -1.328125 C 1.335938 -1.234375 1.390625 -1.09375 1.390625 -0.90625 L 1.390625 0 L 1.203125 0 L 1.203125 -0.234375 C 1.148438 -0.148438 1.082031 -0.0859375 1 -0.046875 C 0.914062 -0.00390625 0.8125 0.015625 0.6875 0.015625 C 0.519531 0.015625 0.390625 -0.0195312 0.296875 -0.09375 C 0.203125 -0.175781 0.15625 -0.28125 0.15625 -0.40625 C 0.15625 -0.53125 0.195312 -0.628906 0.28125 -0.703125 C 0.375 -0.785156 0.519531 -0.828125 0.71875 -0.828125 L 1.1875 -0.828125 L 1.1875 -0.921875 C 1.1875 -1.046875 1.148438 -1.140625 1.078125 -1.203125 C 1.003906 -1.273438 0.898438 -1.3125 0.765625 -1.3125 C 0.671875 -1.3125 0.582031 -1.296875 0.5 -1.265625 C 0.414062 -1.234375 0.34375 -1.191406 0.28125 -1.140625 L 0.1875 -1.28125 C 0.269531 -1.34375 0.363281 -1.390625 0.46875 -1.421875 C 0.570312 -1.460938 0.679688 -1.484375 0.796875 -1.484375 Z M 0.71875 -0.140625 C 0.832031 -0.140625 0.925781 -0.164062 1 -0.21875 C 1.082031 -0.269531 1.144531 -0.34375 1.1875 -0.4375 L 1.1875 -0.6875 L 0.734375 -0.6875 C 0.472656 -0.6875 0.34375 -0.597656 0.34375 -0.421875 C 0.34375 -0.335938 0.375 -0.269531 0.4375 -0.21875 C 0.507812 -0.164062 0.601562 -0.140625 0.71875 -0.140625 Z M 0.71875 -0.140625 "/></g></g></g><g fill="#d91a1a" fill-opacity="1"><g transform="translate(16.124079, 60.147281)"><g><path d="M 0.46875 -1.1875 C 0.507812 -1.28125 0.578125 -1.351562 0.671875 -1.40625 C 0.765625 -1.457031 0.878906 -1.484375 1.015625 -1.484375 L 1.015625 -1.296875 L 0.96875 -1.296875 C 0.8125 -1.296875 0.6875 -1.242188 0.59375 -1.140625 C 0.507812 -1.046875 0.46875 -0.914062 0.46875 -0.75 L 0.46875 0 L 0.28125 0 L 0.28125 -1.46875 L 0.46875 -1.46875 Z M 0.46875 -1.1875 "/></g></g></g><g fill="#d91a1a" fill-opacity="1"><g transform="translate(17.246118, 60.147281)"><g><path d="M 1.03125 -1.484375 C 1.207031 -1.484375 1.347656 -1.425781 1.453125 -1.3125 C 1.566406 -1.207031 1.625 -1.054688 1.625 -0.859375 L 1.625 0 L 1.4375 0 L 1.4375 -0.828125 C 1.4375 -0.984375 1.394531 -1.097656 1.3125 -1.171875 C 1.238281 -1.253906 1.128906 -1.296875 0.984375 -1.296875 C 0.828125 -1.296875 0.703125 -1.25 0.609375 -1.15625 C 0.515625 -1.0625 0.46875 -0.929688 0.46875 -0.765625 L 0.46875 0 L 0.28125 0 L 0.28125 -1.46875 L 0.46875 -1.46875 L 0.46875 -1.203125 C 0.519531 -1.285156 0.59375 -1.351562 0.6875 -1.40625 C 0.789062 -1.457031 0.90625 -1.484375 1.03125 -1.484375 Z M 1.03125 -1.484375 "/></g></g></g><g fill="#d91a1a" fill-opacity="1"><g transform="translate(19.140431, 60.147281)"><g><path d="M 0.28125 -1.46875 L 0.46875 -1.46875 L 0.46875 0 L 0.28125 0 Z M 0.375 -1.796875 C 0.332031 -1.796875 0.296875 -1.804688 0.265625 -1.828125 C 0.242188 -1.859375 0.234375 -1.894531 0.234375 -1.9375 C 0.234375 -1.96875 0.242188 -2 0.265625 -2.03125 C 0.296875 -2.0625 0.332031 -2.078125 0.375 -2.078125 C 0.414062 -2.078125 0.453125 -2.0625 0.484375 -2.03125 C 0.515625 -2.007812 0.53125 -1.976562 0.53125 -1.9375 C 0.53125 -1.894531 0.515625 -1.859375 0.484375 -1.828125 C 0.453125 -1.804688 0.414062 -1.796875 0.375 -1.796875 Z M 0.375 -1.796875 "/></g></g></g><g fill="#d91a1a" fill-opacity="1"><g transform="translate(19.893121, 60.147281)"><g><path d="M 1.03125 -1.484375 C 1.207031 -1.484375 1.347656 -1.425781 1.453125 -1.3125 C 1.566406 -1.207031 1.625 -1.054688 1.625 -0.859375 L 1.625 0 L 1.4375 0 L 1.4375 -0.828125 C 1.4375 -0.984375 1.394531 -1.097656 1.3125 -1.171875 C 1.238281 -1.253906 1.128906 -1.296875 0.984375 -1.296875 C 0.828125 -1.296875 0.703125 -1.25 0.609375 -1.15625 C 0.515625 -1.0625 0.46875 -0.929688 0.46875 -0.765625 L 0.46875 0 L 0.28125 0 L 0.28125 -1.46875 L 0.46875 -1.46875 L 0.46875 -1.203125 C 0.519531 -1.285156 0.59375 -1.351562 0.6875 -1.40625 C 0.789062 -1.457031 0.90625 -1.484375 1.03125 -1.484375 Z M 1.03125 -1.484375 "/></g></g></g><g fill="#d91a1a" fill-opacity="1"><g transform="translate(21.787435, 60.147281)"><g><path d="M 1.640625 -1.46875 L 1.640625 -0.171875 C 1.640625 0.078125 1.578125 0.257812 1.453125 0.375 C 1.328125 0.5 1.144531 0.5625 0.90625 0.5625 C 0.769531 0.5625 0.640625 0.539062 0.515625 0.5 C 0.390625 0.457031 0.289062 0.398438 0.21875 0.328125 L 0.3125 0.171875 C 0.382812 0.242188 0.472656 0.296875 0.578125 0.328125 C 0.679688 0.359375 0.785156 0.375 0.890625 0.375 C 1.078125 0.375 1.210938 0.332031 1.296875 0.25 C 1.390625 0.164062 1.4375 0.03125 1.4375 -0.15625 L 1.4375 -0.34375 C 1.375 -0.25 1.289062 -0.175781 1.1875 -0.125 C 1.09375 -0.0820312 0.984375 -0.0625 0.859375 -0.0625 C 0.722656 -0.0625 0.597656 -0.0859375 0.484375 -0.140625 C 0.378906 -0.203125 0.289062 -0.285156 0.21875 -0.390625 C 0.15625 -0.503906 0.125 -0.628906 0.125 -0.765625 C 0.125 -0.910156 0.15625 -1.035156 0.21875 -1.140625 C 0.289062 -1.242188 0.378906 -1.328125 0.484375 -1.390625 C 0.597656 -1.453125 0.722656 -1.484375 0.859375 -1.484375 C 0.984375 -1.484375 1.097656 -1.457031 1.203125 -1.40625 C 1.304688 -1.351562 1.390625 -1.28125 1.453125 -1.1875 L 1.453125 -1.46875 Z M 0.890625 -0.234375 C 0.992188 -0.234375 1.085938 -0.253906 1.171875 -0.296875 C 1.253906 -0.347656 1.320312 -0.410156 1.375 -0.484375 C 1.425781 -0.566406 1.453125 -0.660156 1.453125 -0.765625 C 1.453125 -0.867188 1.425781 -0.960938 1.375 -1.046875 C 1.320312 -1.128906 1.253906 -1.191406 1.171875 -1.234375 C 1.085938 -1.285156 0.992188 -1.3125 0.890625 -1.3125 C 0.785156 -1.3125 0.6875 -1.285156 0.59375 -1.234375 C 0.507812 -1.191406 0.441406 -1.128906 0.390625 -1.046875 C 0.347656 -0.960938 0.328125 -0.867188 0.328125 -0.765625 C 0.328125 -0.660156 0.347656 -0.566406 0.390625 -0.484375 C 0.441406 -0.410156 0.507812 -0.347656 0.59375 -0.296875 C 0.6875 -0.253906 0.785156 -0.234375 0.890625 -0.234375 Z M 0.890625 -0.234375 "/></g></g></g></svg>